<svg xmlns="http://www.w3.org/2000/svg" xmlns:xlink="http://www.w3.org/1999/xlink" width="500" zoomAndPan="magnify" viewBox="0 0 375 97.5" height="130" preserveAspectRatio="xMidYMid meet" version="1.0"><defs><g/></defs><g fill="#000000" fill-opacity="1"><g transform="translate(-4.391468, 82.271182)"><g><path d="M 22.28125 -67.046875 L 22.28125 -43.125 C 25.488281 -48.4375 30.59375 -51.09375 37.59375 -51.09375 C 43.394531 -51.09375 48.09375 -49.160156 51.6875 -45.296875 C 55.28125 -41.429688 57.078125 -36.175781 57.078125 -29.53125 L 57.078125 0 L 41.671875 0 L 41.671875 -27.453125 C 41.671875 -30.710938 40.8125 -33.234375 39.09375 -35.015625 C 37.375 -36.796875 35.003906 -37.6875 31.984375 -37.6875 C 28.960938 -37.6875 26.585938 -36.796875 24.859375 -35.015625 C 23.140625 -33.234375 22.28125 -30.710938 22.28125 -27.453125 L 22.28125 0 L 6.796875 0 L 6.796875 -67.046875 Z M 22.28125 -67.046875 "/></g></g></g><g fill="#000000" fill-opacity="1"><g transform="translate(55.027284, 82.271182)"><g><path d="M 37.140625 -15.84375 C 39.191406 -18.019531 40.21875 -21.160156 40.21875 -25.265625 C 40.21875 -29.378906 39.160156 -32.507812 37.046875 -34.65625 C 34.929688 -36.800781 32.425781 -37.875 29.53125 -37.875 C 26.632812 -37.875 24.144531 -36.800781 22.0625 -34.65625 C 19.976562 -32.507812 18.9375 -29.378906 18.9375 -25.265625 C 18.9375 -21.160156 20.003906 -18.019531 22.140625 -15.84375 C 24.285156 -13.675781 26.804688 -12.59375 29.703125 -12.59375 C 32.609375 -12.59375 35.085938 -13.675781 37.140625 -15.84375 Z M 10.828125 -6.515625 C 5.722656 -11.285156 3.171875 -17.566406 3.171875 -25.359375 C 3.171875 -33.148438 5.707031 -39.382812 10.78125 -44.0625 C 15.851562 -48.75 22.132812 -51.09375 29.625 -51.09375 C 37.113281 -51.09375 43.378906 -48.75 48.421875 -44.0625 C 53.460938 -39.382812 55.984375 -33.148438 55.984375 -25.359375 C 55.984375 -17.566406 53.476562 -11.285156 48.46875 -6.515625 C 43.457031 -1.742188 37.207031 0.640625 29.71875 0.640625 C 22.226562 0.640625 15.929688 -1.742188 10.828125 -6.515625 Z M 10.828125 -6.515625 "/></g></g></g><g fill="#000000" fill-opacity="1"><g transform="translate(110.18882, 82.271182)"><g><path d="M 3.359375 -35.328125 C 3.359375 -39.796875 5.257812 -43.539062 9.0625 -46.5625 C 12.863281 -49.582031 18.007812 -51.09375 24.5 -51.09375 C 31 -51.09375 36.238281 -49.613281 40.21875 -46.65625 C 44.207031 -43.695312 46.320312 -39.648438 46.5625 -34.515625 L 30.71875 -34.515625 C 30.53125 -36.265625 29.921875 -37.457031 28.890625 -38.09375 C 27.867188 -38.726562 26.332031 -39.046875 24.28125 -39.046875 C 20.226562 -39.046875 18.203125 -37.804688 18.203125 -35.328125 C 18.203125 -33.097656 20.679688 -31.5625 25.640625 -30.71875 C 30.648438 -29.863281 35.207031 -28.5625 39.3125 -26.8125 C 41.425781 -25.96875 43.191406 -24.5625 44.609375 -22.59375 C 46.035156 -20.632812 46.75 -18.238281 46.75 -15.40625 C 46.75 -10.6875 44.722656 -6.832031 40.671875 -3.84375 C 36.628906 -0.851562 31.523438 0.640625 25.359375 0.640625 C 19.203125 0.640625 14.070312 -0.765625 9.96875 -3.578125 C 5.863281 -6.390625 3.628906 -10.539062 3.265625 -16.03125 L 19.109375 -16.03125 C 19.535156 -12.957031 21.710938 -11.421875 25.640625 -11.421875 C 27.453125 -11.421875 28.945312 -11.84375 30.125 -12.6875 C 31.300781 -13.53125 31.890625 -14.613281 31.890625 -15.9375 C 31.890625 -17.269531 30.90625 -18.328125 28.9375 -19.109375 C 26.976562 -19.898438 24.609375 -20.566406 21.828125 -21.109375 C 19.054688 -21.648438 16.265625 -22.328125 13.453125 -23.140625 C 10.640625 -23.960938 8.253906 -25.382812 6.296875 -27.40625 C 4.335938 -29.425781 3.359375 -32.066406 3.359375 -35.328125 Z M 3.359375 -35.328125 "/></g></g></g><g fill="#000000" fill-opacity="1"><g transform="translate(156.473623, 82.271182)"><g><path d="M 28.265625 -13.140625 L 33.796875 -13.140625 L 33.796875 0 L 25.90625 0 C 20.226562 0 15.832031 -1.25 12.71875 -3.75 C 9.613281 -6.257812 8.0625 -10.566406 8.0625 -16.671875 L 8.0625 -37.6875 L 3.359375 -37.6875 L 3.359375 -50.546875 L 8.0625 -50.546875 L 8.0625 -62.875 L 23.546875 -62.875 L 23.546875 -50.546875 L 33.703125 -50.546875 L 33.703125 -37.6875 L 23.546875 -37.6875 L 23.546875 -16.671875 C 23.546875 -14.316406 25.117188 -13.140625 28.265625 -13.140625 Z M 28.265625 -13.140625 "/></g></g></g><g fill="#000000" fill-opacity="1"><g transform="translate(190.077387, 82.271182)"><g><path d="M 0.359375 -50.546875 L 16.84375 -50.546875 L 28.359375 -12.953125 L 39.859375 -50.546875 L 56.34375 -50.546875 L 38.40625 0 L 18.296875 0 Z M 0.359375 -50.546875 "/></g></g></g><g fill="#000000" fill-opacity="1"><g transform="translate(242.793285, 82.271182)"><g><path d="M 20.921875 -56.25 C 19.171875 -54.5 17.023438 -53.625 14.484375 -53.625 C 11.953125 -53.625 9.8125 -54.5 8.0625 -56.25 C 6.3125 -58.007812 5.4375 -60.171875 5.4375 -62.734375 C 5.4375 -65.304688 6.3125 -67.46875 8.0625 -69.21875 C 9.8125 -70.96875 11.953125 -71.84375 14.484375 -71.84375 C 17.023438 -71.84375 19.171875 -70.96875 20.921875 -69.21875 C 22.671875 -67.46875 23.546875 -65.304688 23.546875 -62.734375 C 23.546875 -60.171875 22.671875 -58.007812 20.921875 -56.25 Z M 6.796875 0 L 6.796875 -50.546875 L 22.28125 -50.546875 L 22.28125 0 Z M 6.796875 0 "/></g></g></g><g fill="#000000" fill-opacity="1"><g transform="translate(267.882662, 82.271182)"><g><path d="M 6.796875 0 L 6.796875 -67.046875 L 22.28125 -67.046875 L 22.28125 0 Z M 6.796875 0 "/></g></g></g><g fill="#000000" fill-opacity="1"><g transform="translate(292.972039, 82.271182)"><g><path d="M 6.796875 0 L 6.796875 -67.046875 L 22.28125 -67.046875 L 22.28125 0 Z M 6.796875 0 "/></g></g></g><g fill="#000000" fill-opacity="1"><g transform="translate(318.061415, 82.271182)"><g><path d="M 28.265625 0.640625 C 20.898438 0.640625 14.859375 -1.726562 10.140625 -6.46875 C 5.429688 -11.21875 3.078125 -17.515625 3.078125 -25.359375 C 3.078125 -33.210938 5.414062 -39.460938 10.09375 -44.109375 C 14.78125 -48.765625 20.835938 -51.09375 28.265625 -51.09375 C 35.691406 -51.09375 41.847656 -48.796875 46.734375 -44.203125 C 51.628906 -39.617188 54.078125 -33.25 54.078125 -25.09375 C 54.078125 -23.34375 53.957031 -21.710938 53.71875 -20.203125 L 18.9375 -20.203125 C 19.238281 -17.960938 20.234375 -16.132812 21.921875 -14.71875 C 23.609375 -13.300781 25.429688 -12.59375 27.390625 -12.59375 C 29.359375 -12.59375 30.828125 -12.785156 31.796875 -13.171875 C 32.765625 -13.566406 33.472656 -13.960938 33.921875 -14.359375 C 34.378906 -14.753906 34.96875 -15.40625 35.6875 -16.3125 L 52.453125 -16.3125 C 51.003906 -11.238281 48.101562 -7.144531 43.75 -4.03125 C 39.40625 -0.914062 34.242188 0.640625 28.265625 0.640625 Z M 37.953125 -29.890625 C 37.710938 -32.242188 36.6875 -34.160156 34.875 -35.640625 C 33.0625 -37.128906 30.914062 -37.875 28.4375 -37.875 C 25.96875 -37.875 23.882812 -37.128906 22.1875 -35.640625 C 20.5 -34.160156 19.445312 -32.242188 19.03125 -29.890625 Z M 37.953125 -29.890625 "/></g></g></g></svg>